<?xml version="1.0" encoding="utf-8"?>
<!-- Generator: Adobe Illustrator 19.1.0, SVG Export Plug-In . SVG Version: 6.00 Build 0)  -->
<svg version="1.1" id="Layer_1" xmlns="http://www.w3.org/2000/svg" xmlns:xlink="http://www.w3.org/1999/xlink" x="0px" y="0px"
	 viewBox="0 0 15.7 15.7" style="enable-background:new 0 0 15.7 15.7;" xml:space="preserve">
<style type="text/css">
	.st0{clip-path:url(#SVGID_2_);fill:#f9f9f9;}
</style>
<g>
	<defs>
		<rect id="SVGID_1_" y="0" width="15.7" height="15.7"/>
	</defs>
	<clipPath id="SVGID_2_">
		<use xlink:href="#SVGID_1_"  style="overflow:visible;"/>
	</clipPath>
	<path class="st0" d="M8.7,0.9c0-0.2-0.1-0.5-0.3-0.6C8.3,0.1,8.1,0,7.8,0C7.6,0,7.4,0.1,7.2,0.3C7,0.4,7,0.6,7,0.9V5v9.8
		C7,15,7,15.2,7.2,15.4c0.2,0.2,0.4,0.3,0.6,0.3c0.2,0,0.5-0.1,0.6-0.3c0.2-0.2,0.3-0.4,0.3-0.6v-4.1V0.9z"/>
	<path class="st0" d="M15.4,7.2C15.2,7,15,7,14.8,7h-4.1H0.9C0.6,7,0.4,7,0.3,7.2C0.1,7.4,0,7.6,0,7.8s0.1,0.5,0.3,0.6
		c0.2,0.2,0.4,0.3,0.6,0.3H5h9.8c0.2,0,0.5-0.1,0.6-0.3c0.2-0.2,0.3-0.4,0.3-0.6S15.6,7.4,15.4,7.2"/>
</g>
</svg>
